<svg xmlns="http://www.w3.org/2000/svg" version="1.1" width="600px" height="600px" viewBox="0 0 200 200" style="overflow:hidden!important;"><g id="svga-group-wrapper"><g id="svga-group-backs-single"><path id="SvgjsPath7631" d="M0 0h200v200H0V0z" fill="#ffffff" stroke-width="none" opacity="1" stroke="none"></path></g><g id="svga-group-humanwrap-move" transform="matrix(1,0,0,1,0,0)"><g id="svga-group-humanwrap"><g id="svga-group-hair-back-move" transform="matrix(1,0,0,1,0,0)"><g id="svga-group-hair-back"></g></g><g id="svga-group-humanbody-back"><path id="SvgjsPath4608" d="M180.8 184.9c-2.3-3.4-38.9-17.8-38.9-17.8l-13.4-5.2-5.6-68.8H76.8L71.3 162l-13.4 5.2S21.4 181.6 19 185c-2.3 3.4-3.3 14.9-3.3 14.9V219h168.5v-19.2c-.1.1-1-11.5-3.4-14.9z" fill="#f0c7b1" stroke-width="none" opacity="1" stroke="none"></path></g><g id="svga-group-chinshadow-single"><path id="SvgjsPath4604" d="M73.4 148.4c11.3 14.1 20.9 13.8 20.9 13.8s9.6.3 20.9-13.9c4.4-5.5 8-11.5 10.8-17.1l-3.1-38.1H76.8l-4.3 54.2c.3.3.6.7.9 1.1z" fill="#d19271" stroke-width="none" opacity="1" stroke="none"></path></g><g id="svga-group-humanbody-front"><path id="SvgjsPath4609" d="M184.5 219c-.1-6.4-.1-12.8-.1-19.2l-.3-.1s.1-.1.2 0c.1 0 .1.1.1.1v-.4l-.1-.5-.1-.9-.2-1.9c-.2-1.3-.4-2.5-.6-3.8-.2-1.3-.5-2.5-.9-3.8-.4-1.2-.8-2.5-1.5-3.6-.8-.9-1.9-1.5-2.9-2.1-1-.6-2.1-1.1-3.2-1.7-2.1-1.1-4.3-2.1-6.5-3.1-4.4-2-8.7-3.9-13.1-5.7-4.4-1.9-8.8-3.7-13.2-5.5l-13-5.2-1.2-16.9c-.4-5.7-.9-11.5-1.3-17.2l-1.3-17.2-1.5-17.3-.1-.8h-.8c-7.7 0-15.4.1-23.1.1l-23.1.2h-.5v.5L75 110.2l-1.3 17.2c-.8 11.4-1.8 22.8-2.8 34.2-5.6 2.1-11.2 4.2-16.7 6.4-5.6 2.2-11.2 4.5-16.8 6.9-2.8 1.2-5.6 2.4-8.3 3.6-2.8 1.3-5.5 2.5-8.2 4.1-.7.4-1.3.8-2 1.4-.2.1-.4.4-.5.6l-.3.6c-.2.4-.4.7-.5 1.1-.6 1.5-1 3-1.3 4.5-.6 3-1.1 6-1.4 9.1l-.1 19.1v.9h.9l42.1.1H100c14 0 28.1-.1 42.1-.2l42.1-.5h.3v-.3zm-84.5-1-42.1-.1-41.2.1-.1-18.1c.3-3 .6-5.9 1.2-8.9.3-1.4.6-2.9 1.1-4.2.1-.3.3-.7.4-.9l.2-.4.3-.3c.5-.4 1.1-.8 1.8-1.2 2.5-1.5 5.3-2.8 8-4.1 2.7-1.3 5.5-2.5 8.2-3.7 5.5-2.4 11.1-4.8 16.7-7.1s11.2-4.5 16.9-6.7l.2-.1v-.2c.9-11.5 1.7-23 2.7-34.4l1.4-17.2 1.5-16.7 22.6.2c7.4.1 14.8.1 22.3.1l1.3 16.4 1.5 17.2c.5 5.7 1 11.5 1.5 17.2l1.6 17.2v.3l.3.1 13.4 5c4.4 1.7 8.9 3.4 13.3 5.2 4.4 1.8 8.8 3.7 13.2 5.6 2.2 1 4.3 2 6.5 3 1.1.5 2.1 1.1 3.2 1.6 1 .6 2.1 1.2 2.9 2 .7 1.1 1.1 2.3 1.4 3.5.3 1.2.6 2.5.8 3.7.2 1.3.4 2.5.6 3.8l.2 1.9.1.9.1.5v.4c0 6.3 0 12.6-.1 18.9l-41.8-.5c-14 .1-28.1 0-42.1 0z" fill="#c27b55" stroke-width="none" opacity="1" stroke="none"></path><path id="SvgjsPath4610" d="M125.1 142.4s-1.8 23-9.1 32.9c0 0 7.9-25 9.1-32.9zm-34.5 16s5 7.9 11.5 10.1c0 0-9.5 2.2-11.5-10.1zM73.4 140c6.7 25.6 6.7 25.6 8.5 30.7 0 0 .4-12.6-8.5-30.7z" fill="#d19271" stroke-width="none" opacity="1" stroke="none"></path></g><g id="svga-group-clothes-single"><path id="SvgjsPath6512" d="m71.9 145.1-6.2 2.5-.7 14.1v20.2L79 220h42l10.7-34.3 3.4-25.5-1.7-14.2-5.4-.8-.3 9.2s-26.2 22.2-26.6 22.7-29.2-22.8-29.2-22.8v-9.2z" fill="#eaeaea" stroke-width="none" opacity="1"></path><path id="SvgjsPath6513" d="m127.8 155.4.8-.3 4.9-9-5.5-.9-.2 10.2zm-56.3-1.6h-.4l-5.2-6.1 6.3-2.6-.7 8.7z" fill="#c9c9c9" stroke-width="none" opacity="1"></path><path id="SvgjsPath6514" d="m44.6 168 1.1 1.7s-24.9 7.2-29 9c0 0-4.4-3.1-6 3.4-1.6 6.5-3.8 30.8-3.8 37.9h72s-8.7-29-14.1-59.9L44.6 168zm144.6 14.1c-1.6-6.5-6-3.4-6-3.4-4.1-1.9-29-9-29-9l1.1-1.7-20.3-7.8c-5.3 30.8-14 59.8-14 59.8h72c.1-7.2-2.2-31.4-3.8-37.9z" fill="#000000" stroke-width="none" opacity="1" stroke="none"></path><path id="SvgjsPath6515" d="M89 180.6s4.9 12.4 6.4 15.4c0 0-2.8 17.1-2.9 23.8h18s-2.5-20-3.1-24.1c0 0 4.4-11 5.7-13.9 0 0-2.7-3.4-3.8-3.6-1.1-.2-8.7-.8-8.7-.8s-7.3.9-8.7 1.4c-1.4.4-2.9 1.8-2.9 1.8z" fill="#222222" stroke-width="none" opacity="1"></path><path id="SvgjsPath6516" d="M106.9 196c-1.1.5-3.8 1.9-5.2 2.1h-.5c-1.6-.1-4.2-1.3-5.3-1.8v-.2c.6.1 1.6.2 2.9.5 1.7.4 6.5-.4 8.1-.7m-5.5 17.2c1.2 1.5 3.4 2.7 3.1 1-.2-1.7-3.3-15.8-3.4-16-.1.7-.9 13.5.3 15zm-2.8-17.3s-.1-8.9-.6-9.8c-.5-.9-1.7-.1-2.1 1.8-.5 2 2.3 7.6 2.7 8zm-1.8 15.8c.5 2.7 1.9-.4 2.1-3.6.2-3.2-1.1-10.6-1.1-10.6-.2.5-1.5 11.4-1 14.2zm7.4-27.7c-1-1.1-2.5 1.9-2.8 4-.4 2.1-.2 6.3-.2 7.8-.1 0 3.9-10.7 3-11.8zm3.2 6.8c.6-1.2-.6-2.2-1.5-1.7s-1.7 5.3-2.1 7.2c0 0 3-4.2 3.6-5.5zm-2.4 18.4c.5 1 1.9 2.2 2.1 1.5.2-.7-2.7-12.5-2.7-12.5s.1 10 .6 11z" fill="#000000" stroke-width="none" opacity="1"></path><path id="SvgjsPath6517" d="m192.7 208.3-.9-11.6c-.3-3.9-.7-7.8-1.3-11.6-.2-1-.3-1.9-.5-2.9s-.5-2-1.1-3c-.5-1-1.6-1.9-2.9-2.1-.6-.1-1.2 0-1.8.1-.4.1-.8.3-1.2.5-2.3-.9-4.6-1.6-6.8-2.4l-7.3-2.2c-4.6-1.4-9.1-2.7-13.7-3.9l.6-.9.5-.7-.8-.3c-3.5-1.3-7-2.5-10.4-3.8l-9.2-3.2c0-.1 0-.2.1-.4l-2.2-14.2-6-1.4s-.5 4.6-.5 9.7l-13.8 11c-2.2 1.9-4.5 3.8-6.7 5.8l-3.3 2.9-1.7 1.5-.8.8c-2.3-1.6-4.6-3.4-6.9-5.1l-7.1-5.4-14.6-11.4.1-9.8c-.5.5-6.2 2.5-6.8 3v.1l-.6 8.6-.3 4-10 3.5c-3.4 1.2-6.9 2.5-10.4 3.8l-.8.3.5.7.6.9c-4.6 1.2-9.2 2.5-13.7 3.9l-7.3 2.2c-2.3.8-4.5 1.4-6.9 2.4-.4-.2-.7-.4-1.1-.5-.6-.2-1.2-.2-1.8-.1-1.3.2-2.3 1.1-2.8 2-.6 1-.9 2-1.1 3-.2 1-.3 2-.5 2.9-.5 3.9-.9 7.8-1.3 11.6l-.9 11.6c-.3 3.9-.6 7.8-.7 11.7v.3h.3c6 0 12 .1 18 .2l18 .3 18.1.3h78l18-.1c6-.1 12-.1 18-.3 6-.1 12-.2 18-.2h.4v-.4c-.1-3.9-.4-7.8-.7-11.7zm-88.1-33 3.4-2.9 6.8-5.7 13.6-11.5.2-.2-.4-9.6c1.8.4 3.6.8 5 1.1l1.1 13.6-1.1 8.5-1.4 6.4c-1.1 5-2.4 10-3.6 14.9-.7 2.9-1.5 5.9-2.3 8.8-.3-.8-.6-1.6-1-2.4-.3-.7-.6-1.4-1-2.1-.3-.7-.8-1.4-1.2-2-1.8-2.6-3.6-5-5.5-7.4-1-1.2-2-2.4-3-3.5-1.1-1.1-2.1-2.3-3.5-3.3-.3-.2-.7-.5-1.1-.7-.2-.1-.5-.2-.8-.3-.3-.1-.4 0-.6-.1l-2.3-.3-2.5-.3 1.2-1zm-38.8-19.1.2-8.5 5.7-2.1-.6 8.2 1.4 1.6h.1c4.5 3.8 9.1 7.6 13.7 11.3 2.3 1.9 4.6 3.7 6.9 5.6 1.8 1.4 3.5 2.8 5.4 4.2l-2.1.3c-.8.1-1.5.2-2.3.4l-1.2.2c-.2.1-.3.1-.6.1-.3.1-.5.2-.7.3-1.6.9-2.7 2-3.8 3.1-1.1 1.1-2.1 2.3-3.2 3.5-2 2.4-3.9 4.9-5.7 7.4-.9 1.3-1.8 2.6-2.6 3.9-.7 1.1-1.4 2.2-2 3.3-.8-2.9-1.5-5.9-2.3-8.8-1.2-5-2.5-9.9-3.6-14.9l-1.7-7.5-1-4.7c-.2-2.4-.1-4.8 0-6.9zM7.3 219.6c0-3.8.3-7.5.6-11.3.3-3.9.7-7.7 1.2-11.6.5-3.9 1-7.7 1.7-11.5.4-1.9.7-3.9 1.6-5.3.5-.7 1-1.2 1.7-1.2.7-.1 1.5.2 2.1.6l.4.3.4-.2c.6 1.4 1.1 2.7 1.6 4.1.6 1.7 1.1 3.4 1.3 5.1.5 3.5.8 7 1.2 10.5l1.2 10.5.7 5.3.6 4.5c-5.3.1-10.8.2-16.3.2zM61 219l-18 .1c-6 .1-12 .1-18 .3h-1.1c-.1-3.3-.4-6.5-.6-9.8-.3-3.5-.6-7-1-10.6-.4-3.5-.8-7-1.5-10.5-.7-3.2-2-6.3-3.5-9.1 2.2-.9 4.6-1.6 7-2.4l7.2-2.3 14.5-4.5h.1c.3.3.5.6.8.9.8.8 1.6 1.6 2.5 2.3-1.2.6-2.5 1.2-3.7 1.9l-.7.3.3.7c1.6 3.7 3.3 7.4 5 11 1.7 3.7 3.5 7.3 5.2 10.9l5.4 10.8c1.7 3.3 3.4 6.5 5.2 9.7-1.7.3-3.4.3-5.1.3zm5.3 0c-1.3-3.5-2.8-6.9-4.2-10.3-1.6-3.7-3.2-7.4-4.9-11.1-1.7-3.7-3.4-7.3-5.1-11-1.6-3.4-3.3-6.8-5-10.2 2.3-1.4 4.6-2.7 6.9-4.1l7.5-4.7c-1.4.6-2.7 1.2-4 1.8l-4 1.9c-1.3.7-2.7 1.4-4 2-.6-1-1.3-1.9-2-2.8-.5-.7-1.1-1.3-1.6-2l-.3-.4c3-1.2 6.1-2.5 9.1-3.8l10-4.2c0 .5.4 2.5.7 3.7l.3 1.8.3 1.9c.4 2.5.8 5.1 1.3 7.6 1 5 1.9 10.1 3.1 15.1 2.1 9.6 4.5 19.1 7.2 28.5-3.8.2-7.5.3-11.3.3zm13.6.2c-1.4-4.7-2.7-9.5-4-14.3-.5-2-1.1-3.9-1.6-5.9 1.7-2.3 3.5-4.5 5.3-6.7 2-2.4 4-4.7 6.1-7 1-1.1 2.1-2.2 3.2-3.3l.1-.1c1.2 3.1 4.6 11.4 5.9 14.1-.3 1.7-2.7 16.8-2.9 23.3l-12.1-.1zm13.1.1c.2-6.6 2.7-21.7 2.9-23.2v-.1l-.1-.1c-1.2-2.5-4.9-11.7-6-14.5.8-.7 1.7-1.4 2.5-1.8.1-.1.3-.1.4-.1.1 0 .3-.1.5-.1l1.1-.2c.8-.1 1.5-.2 2.3-.3 1.5-.2 3-.3 4.5-.5l4.5.5 2.3.2c.2 0 .4 0 .5.1.1 0 .2 0 .3.1.3.1.5.3.8.5 1 .7 1.9 1.6 2.8 2.5-1.5 3.5-5.4 13.3-5.5 13.4v.2c.6 4 2.7 20.3 3.1 23.5l-16.9-.1zm18 .3c-.2-1.5-2.5-19.7-3.1-23.9.4-1.1 3.8-9.4 5.2-12.9 1 1 1.9 2 2.8 3 2 2.3 4 4.6 5.9 7 .5.6 1 1.2 1.4 1.8.4.6.8 1.3 1.1 2l1.3 2.5-1.5 5.7c-1.3 4.9-2.7 9.9-4.2 14.8-2.9.1-5.9.1-8.9 0zm11.4-.7c2.7-9.4 5.1-18.9 7.2-28.5 1.1-5 2.1-10.1 3.1-15.1.4-2 .7-4.1 1.1-6.1 1-2.8 1.8-5.7 2.2-8.7l9.3 3.9c3.1 1.3 6.1 2.5 9.1 3.8l-.3.4c-.6.6-1.1 1.3-1.6 2-.7.9-1.3 1.8-1.9 2.8-1.3-.7-2.7-1.4-4-2l-4-1.9c-1.3-.6-2.7-1.3-4-1.8l7.5 4.7c2.3 1.4 4.6 2.8 6.9 4.1-1.7 3.4-3.4 6.8-5 10.2-1.8 3.6-3.4 7.3-5.1 11-1.7 3.7-3.3 7.4-4.9 11.1-1.5 3.4-2.9 6.8-4.2 10.3-3.9-.1-7.6-.2-11.4-.2zm52.6.5-18-.3-18-.1h-5.2c1.8-3.2 3.5-6.5 5.2-9.7 1.9-3.6 3.7-7.2 5.4-10.8 1.8-3.6 3.5-7.3 5.2-10.9 1.7-3.7 3.4-7.3 5-11l.3-.7-.7-.3c-1.2-.6-2.5-1.3-3.7-1.9.9-.7 1.7-1.5 2.5-2.3.3-.3.5-.6.8-.9h.1l14.5 4.5 7.2 2.3c2.4.8 4.8 1.5 7 2.4-1.6 2.8-2.9 5.9-3.5 9.1-.7 3.5-1.1 7-1.5 10.5-.4 3.5-.8 7-1 10.6-.2 3.3-.5 6.5-.6 9.8-.2-.3-.6-.3-1-.3zm1.2 0 .6-4.5.7-5.3c.5-3.5.8-7 1.2-10.5l1.2-10.5c.2-1.7.7-3.4 1.3-5.1.5-1.4 1-2.8 1.6-4.1l.4.2.4-.3c.6-.4 1.5-.7 2.1-.6.7.1 1.3.5 1.7 1.2.9 1.4 1.2 3.4 1.6 5.3.7 3.8 1.2 7.6 1.7 11.5.5 3.8.9 7.7 1.2 11.6.3 3.8.6 7.5.6 11.3-5.3 0-10.8-.1-16.3-.2z" fill="#000000" stroke-width="none" opacity="1" stroke="none"></path><path id="SvgjsPath6518" d="M111 174.5c3.5.2 9.7 9.1 9.7 9.1s8.9-15.3 9.7-19c.8-3.6 2-14.2 2-14.2s-3 9.7-3.8 11.1-17.6 13-17.6 13zm-33.5 15c2-3.5 8.4-11.7 9.9-12.5 1.5-.8 7.6-1.6 7.6-1.6l-15-10.9s2.1 8.2 2.1 10.1-4.6 14.9-4.6 14.9z" fill="#ffffff" stroke-width="none" opacity="1"></path><path id="SvgjsPath6519" d="M184.7 180.9c2.3.8 3.3 6.6 4.1 9.7.8 3.1 2.3 25.1 2.3 25.1s-3.1-25.1-4.6-28.7c-1.5-3.6-1.8-6.1-1.8-6.1zM155 172c1.5-.2 21.9 5.8 25.7 8.2 0 0-10.6-2.3-15.3-3.6-4.8-1.3-10.4-4.6-10.4-4.6zm-16.3-2.6c1 .5 13 7.8 13 7.8s-11.7 24.1-12.9 27.1-5.4 11.7-5.4 11.7 6.1-16.8 7.8-22.6c1.6-5.8 6.1-15.7 6.1-15.7l-8.6-8.3zm-74.2-2.8c.5 5.3 7.8 40.6 10.9 47.8 0 0-6.6-15.3-9.7-29.5-3.2-14.2-1.2-18.3-1.2-18.3z" fill="#0f0f0f" stroke-width="none" opacity="1" stroke="none"></path></g><g id="svga-group-head" transform="matrix(1,0,0,1,0,0)"><g id="svga-group-ears-left-move" transform="matrix(1,0,0,1,0,0)"><g id="svga-group-ears-left"><path id="SvgjsPath4508" d="M68.53 80.36s-11.15-9.8-12.94-9.96c-1.54-.14-5.36 8.01-7.05 13.16-.45 1.36-.34 2.88.25 4.2 1.62 3.57 5.21 11.04 8.43 14.78 0 0 2.72.59 3.58.33.86-.25 7.58-5.67 8.27-7.77s.83-11.3-.54-14.74z" fill="#f0c7b1" stroke-width="none" opacity="1" stroke="none"></path><path id="SvgjsPath4509" d="M69.49 84.19c.18 1.31.28 2.64.33 3.96.05 1.32.06 2.65-.01 3.98a26.7 26.7 0 0 1-.17 1.99c-.05.34-.1.67-.2 1.02s-.28.7-.46.96c-.72 1.11-1.6 1.95-2.47 2.8-.88.84-1.78 1.63-2.71 2.4-.47.38-.93.75-1.42 1.11-.24.18-.49.35-.74.52l-.4.24c-.16.08-.35.17-.53.19-.67.08-1.23-.01-1.82-.09-.58-.08-1.15-.19-1.73-.32l-.13-.03-.08-.1c-1.45-1.74-2.63-3.68-3.74-5.65-1.1-1.98-2.1-4.03-3.06-6.1l-1.41-3.11c-.5-1.05-.71-2.29-.54-3.46.06-.59.26-1.14.44-1.67.18-.54.37-1.07.56-1.6.4-1.05.79-2.11 1.22-3.15.86-2.07 1.76-4.13 2.94-6.02.3-.47.62-.93 1-1.36.19-.21.4-.42.67-.59.13-.08.3-.16.52-.16.19.01.32.07.47.12 1.06.47 1.87 1.14 2.75 1.76 1.72 1.29 3.37 2.66 5 4.09 1.64 1.41 3.22 2.86 4.81 4.38.49 1.27.72 2.58.91 3.89zM58.4 72.51c-.85-.59-1.75-1.26-2.59-1.61-.09-.02-.2-.08-.26-.08-.04 0-.12.02-.2.07-.17.1-.35.25-.51.44-.34.36-.65.8-.94 1.24-1.16 1.8-2.18 3.77-3.11 5.77-.46 1.01-.92 2.02-1.32 3.06-.2.52-.4 1.04-.59 1.57-.19.53-.38 1.05-.45 1.6-.15 1.11.06 2.27.55 3.26.47 1.03.98 2.05 1.49 3.05 1.02 2.02 2.12 3.99 3.26 5.91 1.15 1.91 2.36 3.79 3.76 5.42l-.21-.13c1.09.2 2.3.43 3.29.33.11-.01.18-.06.28-.11l.35-.22.7-.5c.47-.34.93-.71 1.39-1.08.92-.74 1.81-1.52 2.68-2.34.85-.82 1.73-1.66 2.39-2.61.17-.25.29-.46.38-.72.08-.27.14-.58.19-.89.09-.63.17-1.27.21-1.91.1-1.29.14-2.6.15-3.9.01-1.31-.04-2.62-.15-3.92-.11-1.3-.27-2.62-.66-3.84-3.33-2.62-6.67-5.35-10.08-7.86z" fill="#e1ac8f" stroke-width="none" opacity="1" stroke="none"></path><path id="SvgjsPath4510" d="M68.79 88.66S58.04 75.08 56.02 76.21c-2.01 1.12-5.19 7.53-5.18 9.67.02 3.14 3.34 8.38 5.01 9.96s3.68 2.55 6.35 1.94c2.66-.61 6.59-9.12 6.59-9.12z" fill="#e1ac8f" stroke-width="none" opacity="1" stroke="none"></path><path id="SvgjsPath4511" d="M60.61 88.64c-.45-1.26-.95-2.5-1.45-3.74a49.61 49.61 0 0 0-1.66-3.64c-.61-1.18-1.22-2.36-1.97-3.45l-.08-.12-.08.12c-.75 1.18-1.45 2.38-2.12 3.62-.33.62-.66 1.25-.96 1.89-.31.64-.57 1.31-.84 1.98l-.04.1.04.12c.46 1.41.96 2.79 1.47 4.18.25.69.54 1.37.83 2.05.3.68.59 1.35.99 2.01l.19.31.25-.23c.34-.31.6-.65.87-1.02.26-.37.49-.76.69-1.17.4-.82.63-1.78.6-2.74v-.06l-.02-.04c-.5-.99-1.03-1.96-1.55-2.94l-.05.03c.42 1.01.83 2.03 1.26 3.03-.04.86-.3 1.68-.68 2.41-.33.62-.77 1.17-1.24 1.65-.26-.49-.5-1.02-.73-1.56l-.81-2.03c-.53-1.32-1.03-2.66-1.52-3.99.45-1.3.94-2.59 1.52-3.82.57-1.23 1.22-2.41 1.96-3.51.67 1.04 1.17 2.23 1.68 3.39l1.54 3.67 1.56 3.67c.52 1.22 1.05 2.45 1.6 3.66l.06-.03c-.41-1.27-.85-2.54-1.31-3.8z" fill="#c27b55" stroke-width="none" opacity="1" stroke="none"></path></g></g><g id="svga-group-ears-right-move" transform="matrix(1,0,0,1,0,0)"><g id="svga-group-ears-right"><path id="SvgjsPath4512" d="M131.47 80.36s11.15-9.8 12.94-9.96c1.54-.14 5.36 8.01 7.05 13.16.45 1.36.34 2.88-.25 4.2-1.62 3.57-5.21 11.04-8.43 14.78 0 0-2.72.59-3.58.33-.86-.25-7.58-5.67-8.27-7.77s-.83-11.3.54-14.74z" fill="#f0c7b1" stroke-width="none" opacity="1" stroke="none"></path><path id="SvgjsPath4513" d="M131.44 80.33c1.58-1.52 3.17-2.97 4.81-4.38 1.62-1.42 3.28-2.8 5-4.09.88-.63 1.69-1.29 2.75-1.76.16-.04.28-.11.47-.12.21 0 .38.08.52.16.28.17.49.37.67.59.38.43.7.89 1 1.36 1.18 1.89 2.07 3.96 2.94 6.02.43 1.04.82 2.09 1.22 3.15.19.53.38 1.06.56 1.6.18.53.37 1.08.44 1.67.17 1.17-.04 2.41-.54 3.46l-1.41 3.11c-.97 2.06-1.96 4.11-3.06 6.1-1.11 1.98-2.29 3.92-3.74 5.65l-.08.1-.13.03c-.58.13-1.15.23-1.73.32-.59.07-1.16.16-1.82.09-.18-.02-.37-.11-.53-.19l-.4-.24c-.25-.17-.5-.34-.74-.52-.48-.36-.95-.73-1.42-1.11-.93-.76-1.83-1.56-2.71-2.4-.87-.86-1.75-1.69-2.47-2.8a3.42 3.42 0 0 1-.46-.96c-.1-.35-.14-.69-.2-1.02-.08-.67-.14-1.33-.17-1.99-.07-1.33-.07-2.65-.01-3.98.06-1.32.15-2.65.33-3.96.17-1.34.4-2.65.91-3.89zm.06.06c-.4 1.21-.56 2.54-.66 3.84-.1 1.3-.15 2.61-.15 3.92.01 1.31.06 2.61.15 3.9.05.65.12 1.29.21 1.91.06.31.11.62.19.89.09.26.2.47.38.72.66.94 1.54 1.79 2.39 2.61.86.81 1.76 1.59 2.68 2.34.46.37.92.73 1.39 1.08l.7.5.35.22c.1.05.17.1.28.11.99.1 2.2-.13 3.29-.33l-.21.13c1.4-1.63 2.61-3.51 3.76-5.42 1.14-1.92 2.24-3.89 3.26-5.91.51-1.01 1.02-2.02 1.49-3.05.49-.99.7-2.15.55-3.26-.07-.56-.26-1.07-.45-1.6s-.38-1.05-.59-1.57c-.4-1.04-.86-2.06-1.32-3.06-.93-2.01-1.95-3.97-3.11-5.77-.29-.44-.6-.88-.94-1.24-.17-.18-.35-.34-.51-.44a.431.431 0 0 0-.2-.07c-.06 0-.17.06-.26.08-.84.35-1.74 1.02-2.59 1.61-3.39 2.49-6.73 5.22-10.08 7.86z" fill="#e1ac8f" stroke-width="none" opacity="1" stroke="none"></path><path id="SvgjsPath4514" d="M131.21 88.66s10.75-13.58 12.77-12.45c2.01 1.12 5.19 7.53 5.18 9.67-.02 3.14-3.34 8.38-5.01 9.96s-3.68 2.55-6.35 1.94c-2.66-.61-6.59-9.12-6.59-9.12z" fill="#e1ac8f" stroke-width="none" opacity="1" stroke="none"></path><path id="SvgjsPath4515" d="M148.54 85.31c-.26-.67-.52-1.34-.84-1.98-.3-.64-.62-1.27-.96-1.89-.67-1.24-1.38-2.44-2.12-3.62l-.08-.12-.08.12c-.74 1.1-1.36 2.27-1.97 3.45-.6 1.18-1.14 2.4-1.66 3.64-.49 1.24-1 2.48-1.45 3.74-.46 1.26-.9 2.53-1.28 3.81l.06.03c.55-1.21 1.07-2.44 1.6-3.66l1.56-3.67 1.54-3.67c.51-1.16 1.01-2.35 1.68-3.39.74 1.1 1.39 2.29 1.96 3.51.58 1.24 1.08 2.52 1.52 3.82-.5 1.34-.99 2.67-1.52 3.99l-.81 2.03c-.23.53-.47 1.07-.73 1.56-.47-.48-.91-1.03-1.24-1.65-.39-.73-.64-1.55-.68-2.41.43-1 .84-2.02 1.26-3.03l-.05-.03c-.52.98-1.05 1.95-1.55 2.94l-.02.04v.06c-.03.96.2 1.92.6 2.74.2.41.43.81.69 1.17.26.36.53.71.87 1.02l.25.23.19-.31c.4-.67.69-1.34.99-2.01.29-.68.57-1.36.83-2.05.51-1.38 1.01-2.77 1.47-4.18l.04-.12-.07-.11z" fill="#c27b55" stroke-width="none" opacity="1" stroke="none"></path></g></g><g id="svga-group-faceshape-wrap"><g id="svga-group-faceshape-single"><path id="SvgjsPath4590" d="M140.4 54.9c-2.2-10-6.3-16-15.2-20.8-9.3-5-25.2-4.8-25.2-4.8s-15.9-.2-25.2 4.8c-8.8 4.8-13 10.8-15.2 20.8-.9 4 0 13.6 0 13.6s1.2 11.9 1.2 15.3-.6 9.6.2 16.4 6.8 23.5 18.1 37.6 20.9 13.8 20.9 13.8 9.6.3 20.9-13.8 17.3-30.9 18.1-37.6c.8-6.8.2-13 .2-16.4s1.2-15.3 1.2-15.3c-.1-.1.9-9.6 0-13.6z" fill="#f0c7b1" stroke-width="none" opacity="1" stroke="none"></path><path id="SvgjsPath4591" d="M140.4 54.9c-2.2-10-6.3-16-15.2-20.8-9.3-5-25.2-4.8-25.2-4.8s-15.9-.2-25.2 4.8c-8.8 4.8-13 10.8-15.2 20.8-.9 4 0 13.6 0 13.6s1.2 11.9 1.2 15.3-.6 9.6.2 16.4 6.8 23.5 18.1 37.6 20.9 13.8 20.9 13.8 9.6.3 20.9-13.8 17.3-30.9 18.1-37.6c.8-6.8.2-13 .2-16.4s1.2-15.3 1.2-15.3c-.1-.1.9-9.6 0-13.6zm0 10.1c-.1 1.1-.2 2.2-.3 3.4l-.5 4.9c-.2 1.6-.4 3.3-.5 4.9-.2 1.7-.3 3.3-.4 5-.1 1.7 0 3.3 0 5 0 3.3-.1 6.6-.4 9.8 0 .4-.1.8-.1 1.2l-.1.6-.1.6c-.1.8-.3 1.6-.5 2.3-.4 1.6-.9 3.1-1.4 4.7-1.1 3.1-2.3 6.1-3.7 9.1s-2.9 5.9-4.6 8.7c-.4.7-.8 1.4-1.3 2.1-.4.7-.8 1.4-1.3 2.1l-1.4 2-1.4 2c-.5.7-1 1.3-1.5 2l-.7 1-.4.5-.4.5-1.6 1.9c-.5.6-1.1 1.2-1.7 1.8-2.3 2.3-4.7 4.4-7.4 6.1-1.4.8-2.7 1.6-4.2 2.1-.7.3-1.5.5-2.2.7s-1.5.3-2.2.4c-.6 0-1.4-.1-2.1-.2-.7-.2-1.5-.4-2.2-.6-1.5-.5-2.9-1.2-4.3-2-2.8-1.6-5.3-3.7-7.6-5.9-2.3-2.3-4.4-4.8-6.3-7.4-2-2.6-3.8-5.4-5.5-8.1-1.7-2.8-3.3-5.7-4.7-8.7-1.4-3-2.7-6-3.8-9.1-.3-.8-.5-1.6-.8-2.3l-.4-1.2-.3-1.2-.3-1.2c-.1-.4-.2-.8-.2-1.2-.1-.4-.1-.8-.2-1.2l-.1-1.2c-.3-3.3-.4-6.6-.3-9.9 0-1.7.1-3.3.1-5s-.1-3.3-.3-5c-.2-3.3-.5-6.6-.8-9.9s-.4-6.6-.3-9.9c0-.8.1-1.6.2-2.4.1-.8.2-1.5.5-2.3.4-1.6.9-3.1 1.5-4.7 1.2-3 2.8-5.8 4.9-8.2.5-.6 1.1-1.1 1.7-1.7.6-.5 1.2-1 1.9-1.5.6-.5 1.3-.9 2-1.4.7-.4 1.4-.9 2.1-1.2.4-.2.7-.4 1.1-.6l1.1-.5.5-.3.6-.2 1.1-.4c.4-.1.8-.3 1.1-.4.4-.1.8-.3 1.1-.4l1.2-.3 1.2-.3c3.2-.7 6.4-1.2 9.6-1.5 1.6-.1 3.3-.3 4.9-.3.8 0 1.6-.1 2.4-.1h2.4c3.3.1 6.5.3 9.8.7 3.2.4 6.5 1.1 9.5 2.2.4.1.8.3 1.1.4l1.1.5.6.3.5.3 1.1.6c1.4.8 2.8 1.7 4.1 2.7s2.5 2.2 3.5 3.4c1.1 1.3 2 2.6 2.8 4.1 1.6 2.9 2.5 6.1 3.3 9.3.2 1.1.3 2.2.3 3.4v3.4c0 1 0 2.1-.1 3.2z" fill="#c27b55" stroke-width="none" opacity="1" stroke="none"></path></g></g><g id="svga-group-mouth-single-move" transform="matrix(1,0,0,1,0,0)"><g id="svga-group-mouth-single"><path id="SvgjsPath4675" d="M115.95 118.85c-2.72.91-5.53 1.92-7.88 2.91-2.5 1.06-4.07 2.57-6.76 3.19-2.65.62-5.3-.52-8.01-.37-2.69.14-6.08 2.24-7.87-.41-.95-1.41-2.74.41-1.63 1.37 1.64 1.41 3.91 2.59 5.96 2.73 3.29.23 7.06.3 10.34-.05 6.21-.67 11.72-3.75 17.44-6.41 1.86-1.3 1.02-3.63-1.59-2.96z" fill="#da7c87" stroke-width="none" opacity="1" stroke="none"></path><path id="SvgjsPath4676" d="M107.55 131.3c-1.8-.09-3.6.28-5.4.35-1.81.07-3.62-.07-5.43-.06-.38 0-.47.57-.09.67 3.35.88 7.85 1.04 11.07-.39.3-.13.13-.55-.15-.57z" fill="#e1ac8f" stroke-width="none" opacity="1" stroke="none"></path></g></g><g id="svga-group-eyes-left-move" transform="matrix(1,0,0,1,0,0)"><g id="svga-group-eyes-left"><g id="svga-group-eyesback-left"><path id="SvgjsPath7469" d="M80.2 74.2c7.5 0 13.5 5.8 13.5 13s-6 13-13.5 13-13.5-5.8-13.5-13 6-13 13.5-13z" fill="#ffffff" stroke-width="none" opacity="1"></path></g><g id="svga-group-eyesiriswrapper-left" transform="matrix(1,0,0,1,0,0)"><g id="svga-group-eyesiriscontrol-left" transform="matrix(1,0,0,1,0,0)"><g id="svga-group-eyesiris-left"><path id="SvgjsPath6843" d="M80.2 81.6c3.1 0 5.6 2.5 5.6 5.6s-2.5 5.6-5.6 5.6-5.6-2.5-5.6-5.6 2.5-5.6 5.6-5.6z" fill="#000000" stroke-width="none" opacity="1" stroke="none"></path><path id="SvgjsPath6844" d="M80.2 84.2c1.7 0 3 1.3 3 3s-1.3 3-3 3-3-1.3-3-3 1.3-3 3-3z" fill="#000000" stroke-width="none" opacity="1"></path><path id="SvgjsPath6845" d="m79.5 84.8-.6-.6c-.2-.2-.5-.3-.8-.3s-.6.1-.8.3c-.2.2-.3.5-.3.8s.1.6.3.8l.6.6c.2.2.5.3.7.3.3 0 .6-.1.7-.3.6-.6.6-1.2.2-1.6zm2.7 5.1c1 0 1-1.5 0-1.5-.9 0-.9 1.5 0 1.5z" fill="#ffffff" stroke-width="none" opacity="1"></path></g></g></g><g id="svga-group-eyesfront-left"><path id="SvgjsPath7477" d="M80.2 73.7c-7.8 0-14.1 6.1-14.1 13.6s6.3 13.6 14.1 13.6 14.1-6.1 14.1-13.6S88 73.7 80.2 73.7zm-4.9 20.2c-4.8-1.7-6.4-6.7-7.2-10.1-.9-3.5 13.8-3.5 17.5-.4 3.8 3 5.3 7.3 5.5 9.6.1-.1-11 2.6-15.8.9z" fill="#f0c7b1" stroke-width="none" opacity="1"></path><path id="SvgjsPath7478" d="M91.1 92.5c-.1-.5-.1-1-.3-1.4l-.3-.9c-.5-1.9-1.5-4.5-3-6.2-1.2-1.3-4.1-4.4-9-4.4s-8.2 1.6-8.8 1.9c-.2.1-.5.3-.7.5-.4.2-.8.5-1.1 1-.1.2-.1.3-.1.5-.1.1-.1.2-.1.2h.1c0 .1 0 .3.1.4.1.3.2.6.2.9l.6 1.8c.4 1.2.9 2.3 1.6 3.4.7 1.1 1.5 2 2.5 2.8s2.2 1.3 3.4 1.6c2.5.5 5 .3 7.5 0s4.9-.8 7.3-1.5c.2-.2.2-.4.1-.6zm0 .4c-2.4.4-4.9.8-7.3 1.1-1.2.1-2.5.2-3.7.2-1.2 0-2.5 0-3.7-.2-2.4-.4-4.6-1.9-5.8-4-.7-1-1.2-2.2-1.6-3.3-.2-.6-.4-1.2-.5-1.8-.1-.3-.2-.6-.2-.9 0-.2-.1-.3-.1-.4 1.4-.4 6.6-1.9 10.5-1.9 4.5.1 7.9 3.6 9.3 5.1 1.2 1.1 3 5.1 3.1 6.1z" fill="#000000" stroke-width="none" opacity="1"></path></g></g></g><g id="svga-group-eyes-right-move" transform="matrix(1,0,0,1,0,0)"><g id="svga-group-eyes-right"><g id="svga-group-eyesback-right"><path id="SvgjsPath7470" d="M119.8 74.2c7.5 0 13.5 5.8 13.5 13s-6 13-13.5 13-13.5-5.8-13.5-13 6-13 13.5-13z" fill="#ffffff" stroke-width="none" opacity="1"></path></g><g id="svga-group-eyesiriswrapper-right" transform="matrix(1,0,0,1,0,0)"><g id="svga-group-eyesiriscontrol-right" transform="matrix(1,0,0,1,0,0)"><g id="svga-group-eyesiris-right"><path id="SvgjsPath6846" d="M119.8 82.3c2.7 0 4.9 2.2 4.9 4.9s-2.2 4.9-4.9 4.9-4.9-2.2-4.9-4.9 2.2-4.9 4.9-4.9z" fill="#000000" stroke-width="none" opacity="1" stroke="none"></path><path id="SvgjsPath6847" d="M119.8 84.6c1.4 0 2.6 1.2 2.6 2.6s-1.2 2.6-2.6 2.6-2.6-1.2-2.6-2.6 1.2-2.6 2.6-2.6z" fill="#000000" stroke-width="none" opacity="1"></path><path id="SvgjsPath6848" d="M119.2 85.1c-.2-.2-.3-.4-.5-.5-.2-.2-.4-.3-.7-.3-.2 0-.5.1-.7.3-.2.2-.3.4-.3.7 0 .2.1.5.3.7.2.2.4.3.5.5.2.2.4.3.7.3.2 0 .5-.1.7-.3.3-.5.3-1.1 0-1.4zm2.4 4.5c.8 0 .9-1.3 0-1.3-.8-.1-.8 1.3 0 1.3z" fill="#ffffff" stroke-width="none" opacity="1"></path></g></g></g><g id="svga-group-eyesfront-right"><path id="SvgjsPath7479" d="M119.8 73.7c-7.8 0-14.1 6.1-14.1 13.6s6.3 13.6 14.1 13.6 14.1-6.1 14.1-13.6-6.3-13.6-14.1-13.6zm5.3 19.5c-4.4 1.8-15 .1-15 .1.1-1.9 1.3-5.8 4.7-8.7 3.4-2.9 17.2-3.8 16.6-.7-.7 3.1-1.9 7.6-6.3 9.3z" fill="#f0c7b1" stroke-width="none" opacity="1"></path><path id="SvgjsPath7482" d="M131.6 84.1s0-1.3-.9-1.7c-.6-.2-4.4-1-9.1-.7-2.6.2-4.6 1.1-6.1 2.1-.3.2-.6.3-.8.5-.9.8-1.7 1.6-2.4 2.6-1.3 1.9-2.3 4.1-2.3 6.4 0 .3.1.8.1.8s.1-.3.2-.7c2.2.4 4.3.7 6.6.8 1.2.1 2.3.1 3.4.1 1.2 0 2.3-.2 3.4-.4s2.2-.8 3.2-1.4c.9-.7 1.7-1.6 2.4-2.5.6-1 1.1-2 1.5-3.1.2-.5.3-1.1.5-1.7l.2-.8c0-.1 0-.1.1-.2v-.1zm-.4.1-.2.8c-.1.6-.3 1.1-.4 1.7-.4 1.1-.8 2.1-1.4 3.1-1.2 1.9-3.3 3.2-5.5 3.6-.6.1-1.1.2-1.7.3-.6 0-1.1.1-1.7.1-1.1.1-2.3.1-3.4 0-2.2-.1-4.4-.2-6.6-.4.4-1.5 1.5-4.6 2.4-5.7 1.2-1.5 4.2-4.5 8.5-4.9 3.6-.3 8.6.8 10 1.2v.2z" fill="#000000" stroke-width="none" opacity="1"></path></g></g></g><g id="svga-group-facehighlight-single"></g><g id="svga-group-eyebrows-left-move" transform="matrix(1,0,0,1,0,0)"><g id="svga-group-eyebrows-left-rotate" transform="matrix(1,1.7453292519943295e-9,-1.7453292519943295e-9,1,1.2391838311032188e-7,-1.3753196981269866e-7)"><g id="svga-group-eyebrows-left"><path id="SvgjsPath4476" d="M92.8 69.5s-.2 3.9-1 7.1c0 0-16.1-4.6-18-4.8-1.9-.2-8.4 4.1-8.4 4.1l6.5-9.8 3.8.3-.6-.9 8 1.9 7.5 1.2.5 2.8.4-2.8.5 2.8.8-1.9z" fill="#2a232b" stroke-width="none" opacity="1"></path><path id="SvgjsPath4477" d="m92.8 69.5-.1.1c-.1.3-.2.5-.4.8-.1.2-.2.4-.3.7l-.4-2.5-.2-.9-.2.9-.3 1.6-.3-1.6v-.2h-.2l-3.9-.7-1.9-.3c-.6-.1-1.3-.2-1.9-.3-2.6-.6-5.1-1.2-7.7-1.8l-.8-.2.5.8.3.1-3.1-.2h-.2l-.1.1c-1.1 1.7-2.1 3.3-3.2 5l-3.2 5-.4.6.6-.4c1.9-1.3 3.9-2.5 6-3.4.5-.2 1.1-.4 1.6-.6.3-.1.5-.1.8-.1l.4.1.4.1c1.1.3 2.3.6 3.4.9 2.3.7 4.5 1.3 6.8 1.9 2.3.6 4.5 1.2 6.8 1.8l.2.1v-.2c.3-1.2.4-2.4.6-3.6.1-.6.1-1.2.2-1.8 0-.3 0-.6.1-.9V69.6l.1-.1c0 .1 0 0 0 0zm-.1.4-.1.4-.1.9-.3 1.8c-.2 1.1-.4 2.2-.7 3.3-2.2-.7-4.4-1.3-6.6-2-2.3-.7-4.5-1.3-6.8-1.8-1.1-.3-2.3-.5-3.4-.8l-.4-.1-.4-.1c-.3 0-.6 0-.9.1-.6.2-1.1.4-1.6.6-1.9.9-3.7 1.9-5.5 3.1l2.9-4.2c1.1-1.6 2.2-3.2 3.2-4.7l3.6.3.7.1-.4-.7-.1-.1c2.3.6 4.6 1.1 6.9 1.6l3.9.6 3.7.5.5 2.5.2 1.2.2-1.2.3-2 .4 1.9.1.3.1-.3.3-.9c.1-.3.2-.6.3-.8v.5zm-2.9 4.7c0-.8-.1-1.7-.2-2.5-.1-.4-.1-.8-.2-1.2s-.2-.8-.4-1.2c.1.4.1.8.1 1.2 0 .4.1.8.2 1.2.1.8.3 1.7.5 2.5zm-1.2-1.7c-.2-.3-.3-.7-.5-1l-.5-1-1-1.9-.2-.5v.6c0 1.6 0 3.2.1 4.8l.3-.1c-.3-.4-.6-.9-.9-1.3l-.9-1.2c-.3-.4-.6-.8-1-1.2-.3-.4-.7-.8-1.1-1.1.3.4.7.8 1 1.2l.9 1.2c.3.4.6.8.9 1.3.3.4.6.9.8 1.3l.3.5v-.6c0-1.6-.1-3.2-.1-4.8l-.2.1 1.1 1.9.6.9c0 .3.2.6.4.9z" fill="#1b141c" stroke-width="none" opacity="1"></path></g></g></g><g id="svga-group-eyebrows-right-move" transform="matrix(1,0,0,1,0,0)"><g id="svga-group-eyebrows-right-rotate" transform="matrix(1,1.7453292519943295e-9,-1.7453292519943295e-9,1,1.2705996255135688e-7,-2.123193070246998e-7)"><g id="svga-group-eyebrows-right"><path id="SvgjsPath4478" d="M107.2 73.2s.9 3.1 2.3 5.5c0 0 14.9-6.1 16.8-6.5 1.9-.4 9 2 9 2l-8.2-6.9-3.6.8.4-.8-7.5 2.7-7.1 2v2.3l-.9-2.2v2.3l-1.2-1.2z" fill="#2a232b" stroke-width="none" opacity="1"></path><path id="SvgjsPath4479" d="m135.4 74.1-4-3.5c-1.3-1.2-2.7-2.3-4.1-3.5l-.1-.1h-.1l-3 .6.1-.2.4-.7-.8.3c-2.4.8-4.8 1.7-7.2 2.6l-1.8.6-1.8.6-3.7 1.1h-.2v1.5l-.6-1.3-.3-.7v.7l.1 2c-.1-.2-.3-.3-.4-.5-.2-.2-.3-.4-.5-.6l-.1-.1V73.2l.1.2.1.4c.1.2.2.5.2.7.2.5.3.9.5 1.4.3.9.8 1.9 1.2 2.8l.1.2.2-.1c2.1-.8 4.2-1.6 6.4-2.5 2.1-.8 4.2-1.7 6.3-2.5 1.1-.4 2.1-.8 3.2-1.2l.4-.1.4-.1c.3-.1.5-.1.8-.1.6 0 1.1.1 1.7.2 2.2.4 4.4 1.1 6.6 1.8l.6.2-.7-.4zm-8.3-2.1c-.3 0-.6 0-.9.1l-.4.1-.4.1c-1.1.3-2.2.7-3.2 1.1-2.2.8-4.3 1.6-6.4 2.4-2.1.8-4.1 1.7-6.1 2.6-.5-.8-.9-1.7-1.2-2.5-.2-.4-.4-.9-.6-1.4l-.3-.7-.1-.3-.1-.2v-.1c.2.2.3.4.4.6.2.2.3.4.5.7l.2.2V72.8l.6 1.5.4.9v-3.1l3.6-1c1.2-.3 2.5-.7 3.7-1 2.2-.8 4.3-1.5 6.5-2.3v.1l-.3.6.7-.2 3.5-.8c1.3 1.1 2.7 2.2 4 3.3l3.6 2.9c-2-.6-3.9-1.2-6-1.6-.6.1-1.1 0-1.7-.1zm-16 4.7c-.2-.7-.2-1.3-.2-2v-1c0-.3 0-.7.2-1 0 .3.1.7.1 1s.1.7.1 1c-.1.7-.1 1.4-.2 2zm.9-1.5c.1-.3.2-.6.3-.8l.3-.8.6-1.7.2-.4.1.4c.3 1.3.5 2.6.8 3.8h-.3l.6-1.2c.2-.4.4-.8.7-1.1.2-.4.5-.7.7-1.1s.5-.7.8-1c-.3.3-.5.7-.7 1.1-.2.4-.4.7-.7 1.1l-.6 1.2-.6 1.2-.2.4-.1-.4c-.3-1.3-.5-2.6-.8-3.8h.3l-.7 1.6-.4.8c0 .2-.1.4-.3.7z" fill="#1b141c" stroke-width="none" opacity="1"></path></g></g></g><g id="svga-group-beardwrap"><g id="svga-group-beard-single-move" transform="matrix(1,0,0,1,0,0)"><g id="svga-group-beard-single"></g></g></g><g id="svga-group-mustache-single-move" transform="matrix(1,0,0,1,0,0)"><g id="svga-group-mustache-single"></g></g><g id="svga-group-nose-single-move" transform="matrix(1,0,0,1,0,0)"><g id="svga-group-nose-single"><path id="SvgjsPath4660" d="M99.1 116.5c.67.12 4.53-3.31 4.53-3.31s2.06 1.59 3.62 1.43c1.56-.16 2.44-1.08 3-1.96.56-.88-.89-3.1-1.78-4.41-.9-1.31-3.54-5.22-4.09-7.02-1.07-3.45-3-4.76-4.92-4.64-1.92.12-4.04 1.52-4.6 3.44-.56 1.92-.72 4.28-1.8 5.76s-3.32 4-3.56 4.72c-.24.72-.11 2.8 1.24 3.56 1.73.97 4.3-.51 4.3-.51s3.18 2.78 4.06 2.94z" fill="#f0c7b1" stroke-width="none" opacity="1" stroke="none"></path><path id="SvgjsPath4661" d="M110.28 110.87c-.42-1.01-1.08-1.86-1.81-2.61.57.88 1.08 1.8 1.39 2.76.15.48.24.97.16 1.42-.05.23-.12.41-.26.6-.13.2-.29.39-.47.54-.69.66-1.7.91-2.68.78-.49-.06-.99-.2-1.46-.39-.45-.16-.86-.39-1.29-.62.38-.56.72-1.15 1.02-1.76-.97.91-1.89 1.83-2.87 2.64-.49.4-.98.8-1.51 1.09-.51.3-1.07.55-1.51.52-.12.01-.21-.02-.31-.04-.09-.05-.17-.06-.3-.16-.24-.15-.49-.36-.74-.55-.5-.39-.99-.82-1.49-1.23-.99-.84-1.99-1.69-3.07-2.48a21.8 21.8 0 0 0 1.68 2.24c-.5.22-1.01.41-1.53.52-.64.12-1.3.15-1.84-.1-1.09-.53-1.72-1.83-1.54-2.94.05-.28.13-.5.3-.74.17-.26.36-.53.56-.79.4-.52.82-1.02 1.26-1.52l.66-.74c.26-.28.46-.56.67-.84.41-.57.77-1.18 1.07-1.83.3-.65.48-1.4.59-2.06.12-.68.22-1.35.3-2.02.15-1.35.27-2.69.31-4.04.1-2.7.03-5.42-.51-8.07.05 2.69-.14 5.35-.4 8-.15 1.32-.29 2.65-.5 3.96-.1.66-.2 1.31-.32 1.96-.12.66-.27 1.22-.54 1.79a9.34 9.34 0 0 1-.94 1.65c-.18.26-.37.53-.57.74-.23.26-.45.51-.66.78-.43.53-.85 1.07-1.24 1.63-.2.28-.39.57-.57.88-.2.33-.34.76-.37 1.14-.13 1.57.85 3.05 2.25 3.55.73.23 1.47.11 2.12-.11.54-.19 1.03-.46 1.49-.77.24.28.47.57.71.84.44.5.91.96 1.41 1.42.25.23.51.44.82.65.13.1.36.22.57.3.22.06.44.12.66.11.88 0 1.55-.38 2.14-.76.58-.41 1.1-.86 1.55-1.37.44-.48.84-.99 1.21-1.53.75.66 1.64 1.25 2.68 1.45.54.12 1.11.12 1.66 0 .55-.14 1.07-.41 1.49-.8.21-.19.39-.42.54-.65.17-.23.29-.54.32-.84.06-.55-.08-1.1-.29-1.6z" fill="#c27b55" stroke-width="none" opacity="1" stroke="none"></path></g></g><g id="svga-group-hair-front"><path id="SvgjsPath6330" d="M62.3 84.7s1.5-2.7 1.7-7.3 0-10.9.2-14.2c.2-3.3 1-8.2 1.5-10 .4-1.8.6-3.5 1.8-5.3 1.2-1.8 2.4-3.6 5.2-4.3 2.8-.7 7.6-3 8.7-4.3 0 0 3-.6 3.7-1 0 0 5.3 2.6 7.2 2.8 1.9.2 8.2.5 12.3-.7s10.1-2.6 12.4-2.2 12.2-1.1 16.6 12.7c0 0 1.1 4.3 1.2 10.4.1 6.1.3 10.1.8 11.9.4 1.8 1.2 5.6 1.2 7.3s.6 2.5.6 2.5 1.7-3.8 2.2-5.8 1.9-11.6 2.1-13.1c.2-1.5.6-6.4.9-8.5.3-2 0-9.5 0-9.5s.1-4.7-.6-6.1c-.7-1.3-1.4-3.5-2.9-4.8 0 0 .1-1.6-.1-2.7s-2.1-5.3-8.2-10.6-13.3-9.4-21.6-9.4c0 0 2.9-.4 4.8-.6 0 0-5.5-.7-8.1-.3l4.3-.6s-7.2-1.4-12.3.1c0 0 .7-1.2 4.2-2.5 0 0-7.8-2.1-15.4 3.1 0 0-5.9-.3-11.7 6.8 0 0-3.7 1.1-4.7 1.8s-6.2 3.1-6.9 11.4c0 0-5 .6-5.5 11l.5 8.7s-1.8 3.6-1.8 7.3 1 6 1.1 7.8c.1 1.8.7 5.2.7 5.2s1.8 4.2 2.1 5.9c.2 1.9 1.8 7.1 1.8 7.1z" fill="#2a232b" stroke-width="none" opacity="1" stroke="none"></path><path id="SvgjsPath6331" d="M143 46.5c.1-1 .1-2 0-3s-.3-2-.6-3-.7-1.9-1.1-2.8c-.4-.8-1-1.6-1.6-2.4.2-1.8-.4-3.5-1.2-5-.8-1.5-1.9-2.9-3.1-4.2-2.3-2.6-5-4.8-7.7-6.9-2.8-2-5.8-3.8-9.1-4.9-1.6-.6-3.3-1-5-1.2-1.7-.2-3.4-.3-5.1-.1 3.4-.3 6.8.5 10 1.7s6.1 3 8.8 5.1c1.4 1 2.6 2.1 3.9 3.3 1.3 1.1 2.5 2.3 3.6 3.6 1.1 1.3 2.1 2.6 2.9 4.1.8 1.4 1.3 3.1 1.1 4.6v.2l.2.2c.6.7 1.1 1.5 1.6 2.3.4.8.8 1.7 1.1 2.6s.5 1.8.5 2.8c.1 1 .1 1.9 0 2.9.2 3.1.2 6.2.1 9.3-.1 3.1-.7 6.1-1.1 9.2-.4 3.1-.8 6.2-1.3 9.2-.2 1.5-.5 3.1-.9 4.5-.5 1.4-1.1 2.9-1.5 4.4.5-1.5 1.1-2.9 1.7-4.3.5-1.5.8-3 1.1-4.6.6-3.1 1.1-6.1 1.5-9.2l.7-4.6c.3-1.5.4-3.1.5-4.7.2-2.9.2-6 0-9.1zm-7.5 1.3c.1-.8.4-1.6.6-2.4.2-.8.5-1.6.8-2.4l.8-2.4.4-1.2.2-.6.1-.3.1-.2v-.1.1-.1c-.1 0 0 0-.1.1l-.1.1-.2.3-.3.5-.6 1.1c-.4.8-.8 1.5-1.1 2.3-.7 1.6-1.3 3.2-1.6 4.9-.2 1.2-.2 2.4-.2 3.6-.1-.5-.3-1-.4-1.5-.5-1.8-1.2-3.6-2-5.3s-1.7-3.4-3-4.9c-2.4-3-5.9-4.9-9.4-6.3-3.5-1.2-6.3-3.8-8.2-6.9-.9-1.5-1.7-3.3-1.8-5.1-.1-.9.1-1.8.4-2.6.4-.8.9-1.5 1.7-2 1.4-1.1 3.3-1.6 5.1-1.5 1.8.1 3.7.7 5.3 1.6-1.6-1-3.4-1.6-5.3-1.8-1.9-.2-3.9.2-5.4 1.4-.8.5-1.5 1.3-1.9 2.2-.4.9-.6 1.9-.5 2.9.1 2 .8 3.8 1.8 5.4 1.9 3.3 5 6 8.5 7.3 3.4 1.4 6.7 3.3 8.9 6.1 1.8 2.2 3 4.8 4 7.5-1.3-3.2-3.6-6.2-6.7-8-1.8-1.1-3.9-1.7-6-1.8h-.4c-3.2-1-6.6-1.6-10-1.7h-2.5l-.8-.1c-.5 0-1.1-.2-1.6-.3-.5-.2-1-.3-1.5-.6-2-.9-3.7-2.3-4.8-4.1-1.2-1.8-2-3.9-2.3-6-.3-2.2-.2-4.4.5-6.4s2.3-3.7 4.1-4.9c1.9-1.1 4.1-1.8 6.3-2.1-2.2.1-4.5.6-6.5 1.7s-3.7 2.8-4.6 5c-.2.5-.4 1.1-.5 1.7-.1.6-.2 1.1-.2 1.7 0 .6-.1 1.1-.1 1.7 0 .6.1 1.1.1 1.7.3 2.3 1.1 4.5 2.3 6.5 1.3 1.9 3.2 3.5 5.3 4.4 2.1 1 4.6 1.1 6.8.9 2.2-.1 4.4.1 6.6.5.6.1 1.3.2 1.9.3-1.5 0-3 0-4.4.2-4.2.5-8.2 2-12.2 2.6-2 .3-4.1.4-6.1.2-2.1-.1-4.1-.6-5.9-1.4-1.8-.8-3.5-2-4.8-3.6-1.3-1.5-2.2-3.4-2.8-5.3s-.8-4-.7-6c.1-2 .3-4.1 1.1-6 1.6-3.7 4.9-6.6 8.6-8.2 3.4-1.5 7.3-2 10.9-1.4-.5.2-1 .3-1.5.6-.4.2-.8.4-1.2.7-.4.3-.7.6-.9 1.1l-.1.4.4-.1c1-.4 2.1-.6 3.1-.7 1.1-.1 2.1-.2 3.2-.2s2.2.1 3.2.1c1.1.1 2.2.2 3.2.4-1.1-.2-2.1-.4-3.2-.5s-2.2-.2-3.2-.2c-1.1 0-2.2 0-3.3.1-.9.1-1.8.2-2.7.5.2-.2.3-.4.5-.5.3-.2.7-.4 1.1-.6.8-.3 1.6-.6 2.5-.8l1.1-.2-1.1-.3c-4-1-8.5-.6-12.4 1-1.3.5-2.6 1.2-3.7 2.1-1.5.2-2.9.6-4.3 1.2-1.7.7-3.3 1.7-4.7 2.8-.4.3-.7.6-1.1.9-.3.3-.6.7-.9 1-.3.4-.5.8-.8 1.1-3.1.6-6.1 2.2-8.3 4.6-1.3 1.5-2.1 3.3-2.7 5.2-.3 1.2-.5 2.4-.5 3.6-1.5.5-2.8 1.6-3.6 3-.9 1.5-1.3 3.3-1.5 5-.4 3.3-.4 6.7 0 10.1v.2c-.9 2.7-1.6 5.5-1.8 8.4V61c.1.7.2 1.5.4 2.2.3 1.4.5 2.8.7 4.2.2 1.4.4 2.8.8 4.2.2.7.4 1.4.7 2.1.3.6.5 1.3.8 2 .9 2.7 1.7 5.4 2.4 8.2-.5-2.8-1-5.6-1.9-8.4-.2-.7-.4-1.4-.7-2.1-.3-.7-.5-1.3-.6-2-.3-1.4-.4-2.8-.6-4.2-.2-1.4-.4-2.8-.7-4.2-.2-.7-.3-1.4-.3-2v-2c.1-2.2.6-4.4 1.2-6.5.7 2.9 2.2 8.2 5.7 12.4 0 1.1.1 2.2 0 3.4 0 1.9-.1 3.8-.1 5.6 0 1.9-.1 3.8-.3 5.6-.1.9-.1 1.9-.3 2.8-.2.9-.2 1.9-.7 2.7.5-.8.7-1.8.9-2.7s.4-1.9.5-2.8c.2-1.9.4-3.8.6-5.6.2-1.9.2-3.8.3-5.7.1-1.9 0-3.8 0-5.6.1-3.7.6-7.5 1.5-11.1.4-1.8 1-3.6 2.2-5 1.2-1.4 2.8-2.4 4.6-3-1.8.4-3.6 1.4-5 2.7-.7.7-1.2 1.5-1.6 2.4-.4.9-.7 1.8-1 2.7-.6 1.8-.9 3.7-1.2 5.6-.3 1.9-.5 3.8-.6 5.7v.6c-4.1-5.7-5.1-13-5.1-13.1h-.1c-.2-1.6-.3-3.2-.4-4.8-.1-1.7 0-3.4.1-5.2.1-1.7.4-3.4 1.2-4.9.7-1.3 1.8-2.5 3.3-3.1 0 .7 0 1.5.1 2.2.3 1.9 1 3.9 2.4 5.3 1.4 1.5 3.4 2.2 5.3 2.4 3.9.6 7.9-.6 10.8-3-1.6 1-3.3 1.8-5.2 2.2-1.8.4-3.7.4-5.5.1-1.8-.4-3.6-1-4.8-2.3-1.2-1.3-1.9-3.1-2.1-4.9-.5-3.6.5-7.5 2.7-10.4 1.2-1.4 2.7-2.6 4.3-3.5 1-.6 2.2-1 3.3-1.4-.2.4-.3.7-.5 1.1-.7 1.7-1.1 3.6-1.2 5.4-.1 1.9 0 3.7.4 5.5.4 1.8 1 3.6 2.2 5.1.6.7 1.4 1.4 2.2 1.8.8.4 1.7.7 2.6.9 1.8.3 3.6.2 5.2-.6 1 .8 2.2 1.5 3.4 2.1 2 .8 4.1 1.3 6.2 1.4 2.1.2 4.2.1 6.3-.2 4.2-.7 8.1-2.2 12.2-2.8 2.6-.3 5.3-.5 7.8-.1l1.2.3c-.2-.1-.4-.1-.6-.2 1.3.3 2.5.7 3.6 1.3 3.5 1.9 6.1 5.4 7.5 9.2.1.2.2.5.2.7.5 1.8.9 3.6 1.1 5.4 0 .2 0 .3.1.5 0 .6-.1 1.3-.2 1.9.1-.3.2-.5.3-.8.1 1.3 0 2.6 0 3.9 0 3.7.4 7.5.9 11.2.3 1.8.7 3.7 1.1 5.5.4 1.8.2 3.7.1 5.5.1-.9.3-1.8.4-2.8.1-.9 0-1.9-.1-2.8-.1-.9-.3-1.8-.5-2.8s-.3-1.8-.4-2.8c-.4-3.7-.7-7.4-.6-11.1.1-1.8.1-3.8-.1-5.6 0-.3-.1-.7-.1-1 .1-.5.1-1 .2-1.5.3-1.3.3-3 .6-4.6zM80 38.4c-1.7-.5-3.4-1.3-4.3-2.6-1-1.4-1.5-3.1-1.9-4.9-.3-1.7-.4-3.5-.3-5.3.2-2.4.8-4.8 2-6.9.2 0 .5-.1.8-.1-.2 0-.5 0-.7.1.6-.9 1.2-1.7 2.1-2.4 1.3-1.2 2.8-2.2 4.4-3 1.2-.6 2.6-1.1 3.9-1.5-2.2 1.6-4 3.8-5.2 6.4-.9 2-1.1 4.2-1.2 6.3-.1 2.1.2 4.3.7 6.3s1.6 4 3 5.7c.5.6 1.1 1.2 1.8 1.7-1.7.6-3.5.6-5.1.2z" fill="#1b141c" stroke-width="none" opacity="1" stroke="none"></path></g><g id="svga-group-glasses-single-move" transform="matrix(1,0,0,1,0,0)"><g id="svga-group-glasses-single"></g></g></g></g></g><rect id="svga-credit-rect" width="200" height="15" x="0" y="185" fill="#ecf0f1" opacity="0.5" style="display: none;"></rect><text id="svga-credit-text" font-family="Avenir Next, Roboto, Helvetica, Arial, sans-serif" font-size="10px" text-anchor="start" font-weight="400" size="10px" anchor="start" weight="400" fill="#333333" x="33.40447998046875" y="182.60824704170227" style="display: none;"><tspan id="SvgjsTspan4470" dy="13" x="33.40447998046875">Created on AvatarMaker.com</tspan></text></g><defs id="SvgjsDefs4417"></defs></svg>